# Blender 4.2.0
# www.blender.org
mtllib 书.mtl
o 书
v 5.260818 -0.985370 -0.898791
v 5.260818 -0.985370 -0.830612
v 4.758342 -0.985370 -0.898791
v 4.758342 -0.985370 -0.837537
v 5.260818 -0.239638 -0.898791
v 5.260818 -0.239638 -0.837537
v 4.758342 -0.239638 -0.898791
v 4.758342 -0.239638 -0.837537
v 4.751632 -0.985370 -0.905716
v 5.260818 -0.985370 -0.905716
v 5.260818 -0.985370 -0.837537
v 4.751632 -0.985370 -0.830612
v 4.751632 -0.239638 -0.830612
v 4.751632 -0.239638 -0.905716
v 5.260818 -0.239638 -0.905716
v 5.260818 -0.239638 -0.830612
v 5.251439 -0.977455 -0.898791
v 5.251439 -0.977455 -0.837537
v 5.251439 -0.247553 -0.837537
v 5.251439 -0.247553 -0.898791
v 4.758342 -0.974176 -0.898791
v 4.758342 -0.974176 -0.837537
v 4.758342 -0.250832 -0.837537
v 4.758342 -0.250832 -0.898791
v 5.309381 -0.985485 -0.817417
v 5.309381 -0.992590 -0.755426
v 4.812799 -0.985485 -0.817417
v 4.812799 -0.991053 -0.768834
v 5.309381 -0.236839 -0.731607
v 5.309381 -0.242407 -0.683024
v 4.812799 -0.236839 -0.731607
v 4.812799 -0.242407 -0.683024
v 4.794858 -0.983948 -0.830825
v 5.309381 -0.983948 -0.830825
v 5.309381 -0.991053 -0.768834
v 4.794858 -0.992590 -0.755426
v 4.794858 -0.243944 -0.669616
v 4.794858 -0.235302 -0.745015
v 5.309381 -0.235302 -0.745015
v 5.309381 -0.243944 -0.669617
v 5.299903 -0.977539 -0.816506
v 5.299903 -0.983107 -0.767924
v 5.299903 -0.250353 -0.683935
v 5.299903 -0.244785 -0.732518
v 4.812799 -0.974247 -0.816129
v 4.812799 -0.979816 -0.767546
v 4.812799 -0.253645 -0.684312
v 4.812799 -0.248076 -0.732895
v 5.248934 -0.985367 -0.627527
v 5.248934 -0.985367 -0.401562
v 4.762959 -0.985367 -0.627527
v 4.762959 -0.985367 -0.431686
v 5.248934 -0.223728 -0.627527
v 5.248934 -0.223728 -0.431686
v 4.762959 -0.223728 -0.627527
v 4.762959 -0.223728 -0.431686
v 4.728887 -0.985367 -0.662136
v 5.248934 -0.985367 -0.662136
v 5.248934 -0.985367 -0.431686
v 4.728887 -0.985367 -0.401562
v 4.728887 -0.223728 -0.401562
v 4.728887 -0.223728 -0.662136
v 5.248934 -0.223728 -0.662136
v 5.248934 -0.223728 -0.401562
v 5.239355 -0.977283 -0.627527
v 5.239355 -0.977283 -0.431686
v 5.239355 -0.231812 -0.431686
v 5.239355 -0.231812 -0.627527
v 4.762959 -0.973934 -0.627527
v 4.762959 -0.973934 -0.431686
v 4.762959 -0.235160 -0.431686
v 4.762959 -0.235160 -0.627527
v 5.311400 -0.987969 -0.381943
v 5.311400 -0.987969 -0.310248
v 4.779718 -0.987969 -0.381943
v 4.779718 -0.987969 -0.310248
v 5.311400 -0.230724 -0.381943
v 5.311400 -0.230724 -0.310248
v 4.779718 -0.230724 -0.381943
v 4.779718 -0.230724 -0.310248
v 5.267329 -0.983859 -0.137954
v 5.267329 -0.968747 -0.072462
v 4.771985 -0.983859 -0.137954
v 4.771985 -0.970282 -0.079114
v 5.267329 -0.267532 -0.303238
v 5.267329 -0.253956 -0.244398
v 4.771985 -0.267532 -0.303238
v 4.771985 -0.253956 -0.244398
v 4.765370 -0.985393 -0.144606
v 5.267329 -0.985394 -0.144606
v 5.267329 -0.970282 -0.079114
v 4.765370 -0.968747 -0.072462
v 4.765370 -0.252421 -0.237746
v 4.765370 -0.269067 -0.309890
v 5.267329 -0.269067 -0.309890
v 5.267329 -0.252421 -0.237746
v 5.258083 -0.976255 -0.139708
v 5.258083 -0.962679 -0.080869
v 5.258083 -0.261559 -0.242644
v 5.258083 -0.275135 -0.301483
v 4.771985 -0.973106 -0.140435
v 4.771985 -0.959530 -0.081595
v 4.771985 -0.264708 -0.241917
v 4.771985 -0.278285 -0.300757
v 5.237281 -0.961616 -0.053065
v 5.237281 -0.985736 0.005314
v 4.734571 -0.961616 -0.053065
v 4.734571 -0.980519 -0.007313
v 5.237281 -0.256575 0.238234
v 5.237281 -0.275479 0.283987
v 4.734571 -0.256575 0.238234
v 4.734571 -0.275479 0.283987
v 4.716409 -0.956399 -0.065692
v 5.237281 -0.956399 -0.065692
v 5.237281 -0.980519 -0.007313
v 4.716409 -0.985736 0.005314
v 4.716409 -0.280696 0.296614
v 4.716409 -0.251358 0.225607
v 5.237281 -0.251358 0.225607
v 5.237281 -0.280696 0.296614
v 5.227687 -0.954133 -0.049973
v 5.227687 -0.973036 -0.004221
v 5.227687 -0.282962 0.280895
v 5.227687 -0.264059 0.235142
v 4.734571 -0.951033 -0.048693
v 4.734571 -0.969936 -0.002940
v 4.734571 -0.286062 0.279614
v 4.734571 -0.267158 0.233862
v 5.313355 -0.985378 0.329218
v 5.313355 -0.985378 0.555758
v 4.826143 -0.985378 0.329218
v 4.826143 -0.985378 0.525557
v 5.313355 -0.221799 0.329218
v 5.313355 -0.221799 0.525557
v 4.826143 -0.221799 0.329218
v 4.826143 -0.221799 0.525557
v 4.791985 -0.985378 0.294520
v 5.313355 -0.985378 0.294520
v 5.313355 -0.985378 0.525557
v 4.791985 -0.985378 0.555758
v 4.791985 -0.221799 0.555758
v 4.791985 -0.221799 0.294520
v 5.313355 -0.221799 0.294520
v 5.313355 -0.221799 0.555758
v 5.303752 -0.977273 0.329218
v 5.303752 -0.977273 0.525557
v 5.303752 -0.229904 0.525557
v 5.303752 -0.229904 0.329218
v 4.826143 -0.973916 0.329218
v 4.826143 -0.973916 0.525557
v 4.826143 -0.233261 0.525557
v 4.826143 -0.233261 0.329218
v 5.326794 -0.985280 0.568558
v 5.326794 -0.985280 0.639266
v 4.802434 -0.985280 0.568558
v 4.802434 -0.985280 0.639266
v 5.326794 -0.238462 0.568558
v 5.326794 -0.238462 0.639266
v 4.802434 -0.238462 0.568558
v 4.802434 -0.238462 0.639266
v 5.259931 -0.982007 1.012323
v 5.259931 -0.948924 1.073954
v 4.744410 -0.982007 1.012322
v 4.744410 -0.952284 1.067694
v 5.259931 -0.307896 0.650464
v 5.259931 -0.278172 0.705836
v 4.744410 -0.307896 0.650464
v 4.744410 -0.278172 0.705836
v 4.737525 -0.985368 1.006063
v 5.259931 -0.985368 1.006063
v 5.259931 -0.952284 1.067694
v 4.737525 -0.948924 1.073954
v 4.737525 -0.274812 0.712096
v 4.737525 -0.311256 0.644204
v 5.259931 -0.311256 0.644204
v 5.259931 -0.274812 0.712096
v 5.250309 -0.974852 1.008482
v 5.250309 -0.945129 1.063854
v 5.250309 -0.285328 0.709677
v 5.250309 -0.315051 0.654305
v 4.744410 -0.971889 1.006891
v 4.744410 -0.942165 1.062263
v 4.744410 -0.288291 0.711268
v 4.744410 -0.318015 0.655896
v 5.326965 -0.985350 1.078765
v 5.326965 -0.985350 1.148447
v 4.813421 -0.985350 1.078765
v 4.813421 -0.985350 1.141369
v 5.326965 -0.223192 1.078765
v 5.326965 -0.223192 1.141369
v 4.813421 -0.223192 1.078765
v 4.813421 -0.223192 1.141369
v 4.806563 -0.985350 1.071687
v 5.326965 -0.985350 1.071687
v 5.326965 -0.985350 1.141369
v 4.806563 -0.985350 1.148447
v 4.806563 -0.223192 1.148447
v 4.806563 -0.223192 1.071687
v 5.326965 -0.223192 1.071687
v 5.326965 -0.223192 1.148447
v 5.317379 -0.977261 1.078765
v 5.317379 -0.977261 1.141369
v 5.317379 -0.231282 1.141369
v 5.317379 -0.231282 1.078765
v 4.813421 -0.973910 1.078765
v 4.813421 -0.973910 1.141369
v 4.813421 -0.234632 1.141369
v 4.813421 -0.234632 1.078765
vn 1.0000 -0.0000 -0.0000
vn -1.0000 -0.0000 -0.0000
vn -0.0000 -0.0000 -1.0000
vn -0.0000 -0.0000 1.0000
vn -0.0000 -1.0000 -0.0000
vn -0.0000 1.0000 -0.0000
vn -0.0066 -1.0000 -0.0000
vn -0.0066 1.0000 -0.0000
vn -0.0000 0.1139 -0.9935
vn -0.0000 -0.1139 0.9935
vn -0.0000 -0.9935 -0.1139
vn -0.0000 0.9935 0.1139
vn -0.0068 -0.9935 -0.1139
vn -0.0068 0.9935 0.1139
vn -0.0070 -1.0000 -0.0000
vn -0.0070 1.0000 -0.0000
vn -0.0000 -0.2248 -0.9744
vn -0.0000 0.2248 0.9744
vn -0.0000 -0.9744 0.2248
vn -0.0000 0.9744 -0.2248
vn -0.0066 -0.9744 0.2248
vn -0.0066 0.9744 -0.2248
vn -0.0000 0.3819 -0.9242
vn -0.0000 -0.3819 0.9242
vn -0.0000 -0.9242 -0.3819
vn -0.0000 0.9242 0.3819
vn -0.0068 -0.9242 -0.3818
vn -0.0068 0.9242 0.3818
vn -0.0000 -0.4730 -0.8811
vn -0.0000 0.4730 0.8811
vn -0.0000 -0.8811 0.4730
vn -0.0000 0.8811 -0.4730
vn -0.0000 0.8811 -0.4729
vn -0.0066 -0.8811 0.4729
vn -0.0066 0.8811 -0.4729
vt 0.547676 0.179244
vt 0.534066 0.179244
vt 0.534066 0.192854
vt 0.547676 0.192854
vt 0.432336 0.150109
vt 0.484742 0.150109
vt 0.484742 0.873340
vt 0.432336 0.873340
vt 0.506516 0.192854
vt 0.506516 0.165525
vt 0.492906 0.165525
vt 0.492906 0.192854
vt 0.492906 0.206574
vt 0.520236 0.206574
vt 0.520236 0.192964
vt 0.492906 0.192964
vt 0.089014 0.873341
vt 0.089013 0.150109
vt 0.852006 0.150109
vt 0.852006 0.873340
vt 0.097283 0.186902
vt 0.135544 0.186902
vt 0.135544 0.173597
vt 0.097283 0.173597
vt 0.145143 0.213779
vt 0.145143 0.160159
vt 0.135679 0.160159
vt 0.135679 0.213779
vt 0.097283 0.213779
vt 0.116346 0.213779
vt 0.116346 0.200475
vt 0.097283 0.200475
vt 0.125945 0.227218
vt 0.125945 0.200475
vt 0.116481 0.200475
vt 0.116481 0.227218
vt 0.097283 0.173463
vt 0.135544 0.173463
vt 0.135544 0.160159
vt 0.097283 0.160159
vt 0.164342 0.213779
vt 0.164342 0.160159
vt 0.154877 0.160159
vt 0.154877 0.213779
vt 0.097283 0.200340
vt 0.135544 0.200340
vt 0.135544 0.187036
vt 0.097283 0.187036
vt 0.154743 0.213779
vt 0.154743 0.160159
vt 0.145278 0.160159
vt 0.145278 0.213779
vt 0.706104 0.041906
vt 0.706104 0.018075
vt 0.980453 0.018075
vt 0.980453 0.041906
vt 0.017382 0.041906
vt 0.017382 0.018075
vt 0.291730 0.018075
vt 0.291730 0.041906
vt 0.520236 0.192854
vt 0.520236 0.165525
vt 0.506626 0.165525
vt 0.506626 0.192854
vt 0.492906 0.220294
vt 0.520236 0.220294
vt 0.520236 0.206684
vt 0.492906 0.206684
vt 0.533956 0.192854
vt 0.533956 0.165525
vt 0.520346 0.165525
vt 0.520346 0.192854
vt 0.547676 0.165525
vt 0.534066 0.165525
vt 0.534066 0.179135
vt 0.547676 0.179135
vt 0.520346 0.206574
vt 0.547676 0.206574
vt 0.547676 0.192964
vt 0.520346 0.192964
vt 0.554162 0.141293
vt 0.496427 0.141293
vt 0.496427 0.199029
vt 0.554162 0.199029
vt 0.470851 0.336477
vt 0.536007 0.336477
vt 0.536007 0.983425
vt 0.470851 0.983425
vt 0.379558 0.199029
vt 0.379558 0.083092
vt 0.321822 0.083092
vt 0.321822 0.199029
vt 0.321822 0.257230
vt 0.437759 0.257230
vt 0.437759 0.199495
vt 0.321822 0.199495
vt 0.029115 0.983425
vt 0.029115 0.336477
vt 0.977743 0.336477
vt 0.977743 0.983425
vt 0.039907 0.165904
vt 0.172670 0.165904
vt 0.172670 0.119741
vt 0.039907 0.119741
vt 0.205978 0.259166
vt 0.205978 0.073110
vt 0.173137 0.073110
vt 0.173137 0.259166
vt 0.039907 0.259166
vt 0.106055 0.259166
vt 0.106055 0.213002
vt 0.039907 0.213002
vt 0.139363 0.305796
vt 0.139363 0.213002
vt 0.106522 0.213002
vt 0.106522 0.305796
vt 0.039907 0.119274
vt 0.172670 0.119274
vt 0.172670 0.073110
vt 0.039907 0.073110
vt 0.272593 0.259166
vt 0.272593 0.073110
vt 0.239752 0.073110
vt 0.239752 0.259166
vt 0.039907 0.212535
vt 0.172670 0.212535
vt 0.172670 0.166371
vt 0.039907 0.166371
vt 0.239286 0.259166
vt 0.239286 0.073110
vt 0.206445 0.073110
vt 0.206445 0.259166
vt 0.437759 0.199029
vt 0.437759 0.083092
vt 0.380024 0.083092
vt 0.380024 0.199029
vt 0.321822 0.315432
vt 0.437759 0.315432
vt 0.437759 0.257697
vt 0.321822 0.257697
vt 0.495961 0.199029
vt 0.495961 0.083092
vt 0.438225 0.083092
vt 0.438225 0.199029
vt 0.554162 0.083092
vt 0.496427 0.083092
vt 0.496427 0.140827
vt 0.554162 0.140827
vt 0.438225 0.257230
vt 0.554162 0.257230
vt 0.554162 0.199495
vt 0.438225 0.199495
vt 0.435051 0.004046
vt 0.563341 0.004046
vt 0.563341 0.993106
vt 0.435052 0.993106
vt 0.006936 0.993106
vt 0.006935 0.004047
vt 0.991457 0.004046
vt 0.991457 0.993105
vt 0.698809 0.229929
vt 0.698809 0.191946
vt 0.980481 0.191946
vt 0.980481 0.229929
vt 0.469167 0.008608
vt 0.532190 0.008608
vt 0.532190 0.993042
vt 0.469167 0.993042
vt 0.015968 0.229929
vt 0.015968 0.191947
vt 0.297640 0.191946
vt 0.297640 0.229929
vt 0.001796 0.993042
vt 0.001796 0.008608
vt 0.999561 0.008608
vt 0.999561 0.993042
vt 0.606528 0.043569
vt 0.590159 0.043569
vt 0.590159 0.057179
vt 0.606528 0.057179
vt 0.467808 0.014434
vt 0.530837 0.014434
vt 0.530837 0.988664
vt 0.467808 0.988664
vt 0.557025 0.057179
vt 0.557025 0.029849
vt 0.540656 0.029849
vt 0.540656 0.057179
vt 0.540656 0.070899
vt 0.573526 0.070899
vt 0.573526 0.057289
vt 0.540656 0.057289
vt 0.002584 0.988665
vt 0.002584 0.014434
vt 0.993016 0.014434
vt 0.993017 0.988664
vt 0.064837 0.051226
vt 0.110854 0.051226
vt 0.110854 0.037922
vt 0.064837 0.037922
vt 0.122399 0.078104
vt 0.122399 0.024483
vt 0.111016 0.024483
vt 0.111016 0.078104
vt 0.064837 0.078104
vt 0.087765 0.078104
vt 0.087765 0.064799
vt 0.064837 0.064799
vt 0.099309 0.091542
vt 0.099309 0.064799
vt 0.087926 0.064799
vt 0.087926 0.091542
vt 0.064837 0.037788
vt 0.110854 0.037788
vt 0.110854 0.024483
vt 0.064837 0.024483
vt 0.145489 0.078104
vt 0.145489 0.024483
vt 0.134106 0.024483
vt 0.134106 0.078104
vt 0.064837 0.064665
vt 0.110854 0.064665
vt 0.110854 0.051361
vt 0.064837 0.051361
vt 0.133944 0.078104
vt 0.133944 0.024483
vt 0.122561 0.024483
vt 0.122561 0.078104
vt 0.573526 0.057179
vt 0.573526 0.029849
vt 0.557157 0.029849
vt 0.557157 0.057179
vt 0.540656 0.084619
vt 0.573526 0.084619
vt 0.573526 0.071009
vt 0.540656 0.071009
vt 0.590027 0.057179
vt 0.590027 0.029849
vt 0.573658 0.029849
vt 0.573658 0.057179
vt 0.606528 0.029849
vt 0.590159 0.029849
vt 0.590159 0.043459
vt 0.606528 0.043459
vt 0.573658 0.070899
vt 0.606528 0.070899
vt 0.606528 0.057289
vt 0.573658 0.057289
vt 0.470851 0.007445
vt 0.536007 0.007445
vt 0.536007 0.993102
vt 0.470851 0.993102
vt 0.008039 0.993102
vt 0.008039 0.007445
vt 0.998820 0.007445
vt 0.998820 0.993102
vt 0.421157 0.255949
vt 0.407544 0.255949
vt 0.407544 0.269562
vt 0.421157 0.269562
vt 0.379988 0.269562
vt 0.379988 0.242226
vt 0.366375 0.242226
vt 0.366375 0.269562
vt 0.366375 0.283285
vt 0.393711 0.283285
vt 0.393711 0.269672
vt 0.366375 0.269672
vt 0.299904 0.261752
vt 0.331208 0.261752
vt 0.331208 0.250867
vt 0.299904 0.250867
vt 0.339061 0.283741
vt 0.339061 0.239873
vt 0.331318 0.239873
vt 0.331318 0.283741
vt 0.299904 0.283741
vt 0.315501 0.283741
vt 0.315501 0.272857
vt 0.299904 0.272857
vt 0.323354 0.294736
vt 0.323354 0.272857
vt 0.315611 0.272857
vt 0.315611 0.294736
vt 0.299904 0.250757
vt 0.331208 0.250757
vt 0.331208 0.239873
vt 0.299904 0.239873
vt 0.354768 0.283741
vt 0.354768 0.239873
vt 0.347024 0.239873
vt 0.347024 0.283741
vt 0.299904 0.272747
vt 0.331208 0.272747
vt 0.331208 0.261862
vt 0.299904 0.261862
vt 0.346914 0.283741
vt 0.346914 0.239873
vt 0.339171 0.239873
vt 0.339171 0.283741
vt 0.393711 0.269562
vt 0.393711 0.242226
vt 0.380098 0.242226
vt 0.380098 0.269562
vt 0.366375 0.297008
vt 0.393711 0.297008
vt 0.393711 0.283395
vt 0.366375 0.283395
vt 0.407434 0.269562
vt 0.407434 0.242226
vt 0.393821 0.242226
vt 0.393821 0.269562
vt 0.421157 0.242226
vt 0.407544 0.242226
vt 0.407544 0.255839
vt 0.421157 0.255839
vt 0.393821 0.283285
vt 0.421157 0.283285
vt 0.421157 0.269672
vt 0.393821 0.269672
vt 0.601735 0.043872
vt 0.584232 0.043872
vt 0.584232 0.062642
vt 0.601735 0.062642
vt 0.453409 0.003691
vt 0.520802 0.003691
vt 0.520802 1.001121
vt 0.453409 1.001121
vt 0.548804 0.062642
vt 0.548804 0.024951
vt 0.531301 0.024951
vt 0.531301 0.062642
vt 0.531301 0.081564
vt 0.566447 0.081564
vt 0.566447 0.062794
vt 0.531301 0.062794
vt 0.011899 1.001121
vt 0.011899 0.003691
vt 0.993100 0.003691
vt 0.993101 1.001121
vt 0.022534 0.054432
vt 0.071738 0.054432
vt 0.071738 0.036084
vt 0.022534 0.036084
vt 0.084082 0.091500
vt 0.084082 0.017551
vt 0.071911 0.017551
vt 0.071911 0.091500
vt 0.022534 0.091500
vt 0.047049 0.091500
vt 0.047049 0.073152
vt 0.022534 0.073152
vt 0.059394 0.110033
vt 0.059394 0.073152
vt 0.047222 0.073152
vt 0.047222 0.110033
vt 0.022534 0.035899
vt 0.071738 0.035899
vt 0.071738 0.017551
vt 0.022534 0.017551
vt 0.108771 0.091500
vt 0.108771 0.017551
vt 0.096599 0.017551
vt 0.096599 0.091500
vt 0.022534 0.072966
vt 0.071738 0.072966
vt 0.071738 0.054618
vt 0.022534 0.054618
vt 0.096426 0.091500
vt 0.096426 0.017551
vt 0.084255 0.017551
vt 0.084255 0.091500
vt 0.566447 0.062642
vt 0.566447 0.024951
vt 0.548945 0.024951
vt 0.548945 0.062642
vt 0.531301 0.100485
vt 0.566447 0.100485
vt 0.566447 0.081715
vt 0.531301 0.081715
vt 0.584091 0.062642
vt 0.584091 0.024951
vt 0.566589 0.024951
vt 0.566589 0.062642
vt 0.601735 0.024951
vt 0.584232 0.024951
vt 0.584232 0.043721
vt 0.601735 0.043721
vt 0.566589 0.081564
vt 0.601735 0.081564
vt 0.601735 0.062794
vt 0.566589 0.062794
s 0
usemtl 朝花夕拾
f 7/1/1 8/2/1 23/3/1 24/4/1
f 9/5/2 12/6/2 13/7/2 14/8/2
f 8/9/3 6/10/3 19/11/3 23/12/3
f 6/13/3 11/14/3 18/15/3 19/16/3
f 9/5/3 14/8/3 15/17/3 10/18/3
f 13/7/4 12/6/4 2/19/4 16/20/4
f 1/21/5 3/22/5 9/23/5 10/24/5
f 4/25/5 11/26/5 2/27/5 12/28/5
f 3/29/5 4/30/5 12/31/5 9/32/5
f 8/33/6 7/34/6 14/35/6 13/36/6
f 7/37/6 5/38/6 15/39/6 14/40/6
f 6/41/6 8/42/6 13/43/6 16/44/6
f 5/45/1 1/46/1 10/47/1 15/48/1
f 11/49/1 6/50/1 16/51/1 2/52/1
f 11/61/3 4/62/3 22/63/3 18/64/3
f 1/65/4 5/66/4 20/67/4 17/68/4
f 5/69/4 7/70/4 24/71/4 20/72/4
f 4/73/1 3/74/1 21/75/1 22/76/1
f 3/77/4 1/78/4 17/79/4 21/80/4
usemtl 书页
f 17/53/7 18/54/7 22/55/7 21/56/7
f 24/57/8 23/58/8 19/59/8 20/60/8
f 20/60/1 19/59/1 18/54/1 17/53/1
f 41/53/13 42/54/13 46/55/13 45/56/13
f 48/57/14 47/58/14 43/59/14 44/60/14
f 44/60/1 43/59/1 42/54/1 41/53/1
f 65/53/15 66/54/15 70/55/15 69/56/15
f 72/57/16 71/58/16 67/59/16 68/60/16
f 68/60/1 67/59/1 66/54/1 65/53/1
f 73/161/5 74/162/5 76/163/5 75/164/5
f 79/169/6 80/170/6 78/171/6 77/172/6
f 77/172/1 78/171/1 74/162/1 73/161/1
f 97/53/21 98/54/21 102/55/21 101/56/21
f 104/57/22 103/58/22 99/59/22 100/60/22
f 100/60/1 99/59/1 98/54/1 97/53/1
f 121/53/27 122/54/27 126/55/27 125/56/27
f 128/57/28 127/58/28 123/59/28 124/60/28
f 124/60/1 123/59/1 122/54/1 121/53/1
f 145/53/15 146/54/15 150/55/15 149/56/15
f 152/57/16 151/58/16 147/59/16 148/60/16
f 148/60/1 147/59/1 146/54/1 145/53/1
f 153/161/5 154/162/5 156/163/5 155/164/5
f 159/169/6 160/170/6 158/171/6 157/172/6
f 157/172/1 158/171/1 154/162/1 153/161/1
f 177/53/34 178/54/34 182/55/34 181/56/34
f 184/57/35 183/58/35 179/59/35 180/60/35
f 180/60/1 179/59/1 178/54/1 177/53/1
f 201/53/7 202/54/7 206/55/7 205/56/7
f 208/57/8 207/58/8 203/59/8 204/60/8
f 204/60/1 203/59/1 202/54/1 201/53/1
usemtl 围城
f 31/81/1 32/82/1 47/83/1 48/84/1
f 33/85/2 36/86/2 37/87/2 38/88/2
f 32/89/9 30/90/9 43/91/9 47/92/9
f 30/93/9 35/94/9 42/95/9 43/96/9
f 33/85/9 38/88/9 39/97/9 34/98/9
f 37/87/10 36/86/10 26/99/10 40/100/10
f 25/101/11 27/102/11 33/103/11 34/104/11
f 28/105/11 35/106/11 26/107/11 36/108/11
f 27/109/11 28/110/11 36/111/11 33/112/11
f 32/113/12 31/114/12 38/115/12 37/116/12
f 31/117/12 29/118/12 39/119/12 38/120/12
f 30/121/12 32/122/12 37/123/12 40/124/12
f 29/125/1 25/126/1 34/127/1 39/128/1
f 35/129/1 30/130/1 40/131/1 26/132/1
f 35/133/9 28/134/9 46/135/9 42/136/9
f 25/137/10 29/138/10 44/139/10 41/140/10
f 29/141/10 31/142/10 48/143/10 44/144/10
f 28/145/1 27/146/1 45/147/1 46/148/1
f 27/149/10 25/150/10 41/151/10 45/152/10
usemtl 红楼梦
f 55/81/1 56/82/1 71/83/1 72/84/1
f 57/153/2 60/154/2 61/155/2 62/156/2
f 56/89/3 54/90/3 67/91/3 71/92/3
f 54/93/3 59/94/3 66/95/3 67/96/3
f 57/153/3 62/156/3 63/157/3 58/158/3
f 61/155/4 60/154/4 50/159/4 64/160/4
f 49/101/5 51/102/5 57/103/5 58/104/5
f 52/105/5 59/106/5 50/107/5 60/108/5
f 51/109/5 52/110/5 60/111/5 57/112/5
f 56/113/6 55/114/6 62/115/6 61/116/6
f 55/117/6 53/118/6 63/119/6 62/120/6
f 54/121/6 56/122/6 61/123/6 64/124/6
f 53/125/1 49/126/1 58/127/1 63/128/1
f 59/129/1 54/130/1 64/131/1 50/132/1
f 59/133/3 52/134/3 70/135/3 66/136/3
f 49/137/4 53/138/4 68/139/4 65/140/4
f 53/141/4 55/142/4 72/143/4 68/144/4
f 52/145/1 51/146/1 69/147/1 70/148/1
f 51/149/4 49/150/4 65/151/4 69/152/4
usemtl 城南旧事
f 75/165/2 76/166/2 80/167/2 79/168/2
f 75/165/3 79/168/3 77/173/3 73/174/3
f 80/167/4 76/166/4 74/175/4 78/176/4
usemtl 骆驼祥子
f 87/177/1 88/178/1 103/179/1 104/180/1
f 89/181/2 92/182/2 93/183/2 94/184/2
f 88/185/17 86/186/17 99/187/17 103/188/17
f 86/189/17 91/190/17 98/191/17 99/192/17
f 89/181/17 94/184/17 95/193/17 90/194/17
f 93/183/18 92/182/18 82/195/18 96/196/18
f 81/197/19 83/198/19 89/199/19 90/200/19
f 84/201/19 91/202/19 82/203/19 92/204/19
f 83/205/19 84/206/19 92/207/19 89/208/19
f 88/209/20 87/210/20 94/211/20 93/212/20
f 87/213/20 85/214/20 95/215/20 94/216/20
f 86/217/20 88/218/20 93/219/20 96/220/20
f 85/221/1 81/222/1 90/223/1 95/224/1
f 91/225/1 86/226/1 96/227/1 82/228/1
f 91/229/17 84/230/17 102/231/17 98/232/17
f 81/233/18 85/234/18 100/235/18 97/236/18
f 85/237/18 87/238/18 104/239/18 100/240/18
f 84/241/1 83/242/1 101/243/1 102/244/1
f 83/245/18 81/246/18 97/247/18 101/248/18
usemtl 三体黑暗森林
f 111/81/1 112/82/1 127/83/1 128/84/1
f 113/249/2 116/250/2 117/251/2 118/252/2
f 112/89/23 110/90/23 123/91/23 127/92/23
f 110/93/23 115/94/23 122/95/23 123/96/23
f 113/249/23 118/252/23 119/253/23 114/254/23
f 117/251/24 116/250/24 106/255/24 120/256/24
f 105/101/25 107/102/25 113/103/25 114/104/25
f 108/105/25 115/106/25 106/107/25 116/108/25
f 107/109/25 108/110/25 116/111/25 113/112/25
f 112/113/26 111/114/26 118/115/26 117/116/26
f 111/117/26 109/118/26 119/119/26 118/120/26
f 110/121/26 112/122/26 117/123/26 120/124/26
f 109/125/1 105/126/1 114/127/1 119/128/1
f 115/129/1 110/130/1 120/131/1 106/132/1
f 115/133/23 108/134/23 126/135/23 122/136/23
f 105/137/24 109/138/24 124/139/24 121/140/24
f 109/141/24 111/142/24 128/143/24 124/144/24
f 108/145/1 107/146/1 125/147/1 126/148/1
f 107/149/24 105/150/24 121/151/24 125/152/24
usemtl 三国演义
f 135/257/1 136/258/1 151/259/1 152/260/1
f 137/153/2 140/154/2 141/155/2 142/156/2
f 136/261/3 134/262/3 147/263/3 151/264/3
f 134/265/3 139/266/3 146/267/3 147/268/3
f 137/153/3 142/156/3 143/157/3 138/158/3
f 141/155/4 140/154/4 130/159/4 144/160/4
f 129/269/5 131/270/5 137/271/5 138/272/5
f 132/273/5 139/274/5 130/275/5 140/276/5
f 131/277/5 132/278/5 140/279/5 137/280/5
f 136/281/6 135/282/6 142/283/6 141/284/6
f 135/285/6 133/286/6 143/287/6 142/288/6
f 134/289/6 136/290/6 141/291/6 144/292/6
f 133/293/1 129/294/1 138/295/1 143/296/1
f 139/297/1 134/298/1 144/299/1 130/300/1
f 139/301/3 132/302/3 150/303/3 146/304/3
f 129/305/4 133/306/4 148/307/4 145/308/4
f 133/309/4 135/310/4 152/311/4 148/312/4
f 132/313/1 131/314/1 149/315/1 150/316/1
f 131/317/4 129/318/4 145/319/4 149/320/4
usemtl 余秋雨散文
f 155/165/2 156/166/2 160/167/2 159/168/2
f 155/165/3 159/168/3 157/173/3 153/174/3
f 160/167/4 156/166/4 154/175/4 158/176/4
usemtl 诗经
f 167/1/1 168/2/1 183/3/1 184/4/1
f 169/5/2 172/6/2 173/7/2 174/8/2
f 168/9/29 166/10/29 179/11/29 183/12/29
f 166/13/29 171/14/29 178/15/29 179/16/29
f 169/5/29 174/8/29 175/17/29 170/18/29
f 173/7/30 172/6/30 162/19/30 176/20/30
f 161/21/31 163/22/31 169/23/31 170/24/31
f 164/25/31 171/26/31 162/27/31 172/28/31
f 163/29/31 164/30/31 172/31/31 169/32/31
f 168/33/32 167/34/32 174/35/32 173/36/32
f 167/37/33 165/38/33 175/39/33 174/40/33
f 166/41/32 168/42/32 173/43/32 176/44/32
f 165/45/1 161/46/1 170/47/1 175/48/1
f 171/49/1 166/50/1 176/51/1 162/52/1
f 171/61/29 164/62/29 182/63/29 178/64/29
f 161/65/30 165/66/30 180/67/30 177/68/30
f 165/69/30 167/70/30 184/71/30 180/72/30
f 164/73/1 163/74/1 181/75/1 182/76/1
f 163/77/30 161/78/30 177/79/30 181/80/30
usemtl 花开季节
f 191/321/1 192/322/1 207/323/1 208/324/1
f 193/325/2 196/326/2 197/327/2 198/328/2
f 192/329/3 190/330/3 203/331/3 207/332/3
f 190/333/3 195/334/3 202/335/3 203/336/3
f 193/325/3 198/328/3 199/337/3 194/338/3
f 197/327/4 196/326/4 186/339/4 200/340/4
f 185/341/5 187/342/5 193/343/5 194/344/5
f 188/345/5 195/346/5 186/347/5 196/348/5
f 187/349/5 188/350/5 196/351/5 193/352/5
f 192/353/6 191/354/6 198/355/6 197/356/6
f 191/357/6 189/358/6 199/359/6 198/360/6
f 190/361/6 192/362/6 197/363/6 200/364/6
f 189/365/1 185/366/1 194/367/1 199/368/1
f 195/369/1 190/370/1 200/371/1 186/372/1
f 195/373/3 188/374/3 206/375/3 202/376/3
f 185/377/4 189/378/4 204/379/4 201/380/4
f 189/381/4 191/382/4 208/383/4 204/384/4
f 188/385/1 187/386/1 205/387/1 206/388/1
f 187/389/4 185/390/4 201/391/4 205/392/4
